<svg width="50" height="76" viewBox="0 0 50 76" fill="none" xmlns="http://www.w3.org/2000/svg">
<path d="M38.7454 61.2917C43.6899 56.8811 43.4732 49.2437 38.5983 44.9569C36.7103 43.301 34.358 42.4034 31.8354 42.3957H27.4093C26.5194 42.3957 25.7921 41.6606 25.7921 40.7707V36.9791C25.7921 36.0893 26.5117 35.3619 27.4093 35.3619H31.9669C36.571 35.3387 40.7417 31.9108 41.9489 27.4228C42.9393 23.755 42.0417 20.1104 39.7203 17.3557C37.84 15.1272 35.1704 13.688 32.2687 13.6648L26.5968 13.6183C26.1016 13.6183 25.6992 13.2237 25.6992 12.7207V7.56727C25.6992 7.14168 26.0087 6.65419 26.4808 6.64646L31.6729 6.62324C38.0954 6.59229 43.9994 10.2446 47.0868 15.8159C51.2731 23.3681 49.4933 32.7929 42.8465 38.3023C42.6917 38.4339 42.5602 38.6737 42.5602 38.8904C42.5602 39.1148 42.684 39.3392 42.8697 39.5017C48.7815 44.4308 50.9016 52.4859 48.1469 59.7132C45.5547 66.4916 38.9311 71.1576 31.4949 71.1653H26.9682C26.4575 71.1653 26.0474 70.7552 26.0474 70.2445V65.0214C26.0474 64.5184 26.4962 64.1625 26.9605 64.1625H31.464C34.1722 64.147 36.7335 63.1024 38.7376 61.3149L38.7454 61.2917Z" fill="#5F0058"/>
<path d="M26.9758 71.1581C26.7282 71.1581 26.4883 71.0575 26.3104 70.8795C26.1324 70.7016 26.0318 70.4617 26.0318 70.2141V64.991C26.0318 64.4493 26.5193 64.1166 26.9681 64.1166H31.4638C34.1025 64.1011 36.6792 63.0952 38.722 61.2768C39.9059 60.2244 40.819 58.9631 41.438 57.5316C42.0338 56.1698 42.3279 54.7073 42.3279 53.2061C42.3201 50.0568 40.9505 47.0545 38.575 44.9652C36.6792 43.2938 34.3423 42.4117 31.8275 42.4117H27.4014C26.4961 42.4117 25.7687 41.6689 25.7687 40.7713V36.9797C25.7687 36.0821 26.5038 35.347 27.4014 35.3392H31.9591C34.1644 35.3238 36.3851 34.5113 38.2113 33.0488C40.0142 31.6018 41.3374 29.5977 41.9255 27.4156C42.885 23.8484 42.0803 20.1884 39.7047 17.364C37.7548 15.0427 35.0387 13.704 32.2686 13.6808L26.5967 13.6344C26.086 13.6344 25.6836 13.2243 25.6836 12.7135V7.56009C25.6836 7.11129 26.0086 6.6238 26.4806 6.6238L31.6728 6.60059C31.6728 6.60059 31.7269 6.60059 31.7501 6.60059C34.853 6.60059 37.925 7.46723 40.641 9.09994C43.3415 10.7249 45.5778 13.0463 47.1022 15.801C49.1295 19.4533 49.8182 23.7246 49.0521 27.8257C48.2861 31.9268 46.0808 35.6488 42.8618 38.3106C42.6993 38.4422 42.5832 38.682 42.5832 38.8832C42.5832 39.0921 42.6993 39.3165 42.8927 39.479C45.8022 41.901 47.8373 45.1045 48.789 48.7336C49.7408 52.3704 49.5241 56.162 48.17 59.7137C45.5546 66.5618 38.8535 71.1736 31.5025 71.1736H26.9758V71.1581ZM38.7452 61.2923L38.7607 61.3077C36.7101 63.1339 34.1257 64.1476 31.4716 64.1476H26.9758C26.5425 64.1553 26.0782 64.4803 26.0782 64.991V70.2141C26.0782 70.454 26.1711 70.6784 26.3413 70.8486C26.5116 71.0188 26.736 71.1117 26.9758 71.1117H31.5025C38.8381 71.104 45.5236 66.5076 48.1313 59.6673C49.4855 56.1311 49.6944 52.3395 48.7504 48.7104C47.8063 45.089 45.7713 41.8933 42.8695 39.479C42.6683 39.3088 42.5523 39.0767 42.5523 38.86C42.5523 38.6511 42.6761 38.3957 42.8463 38.2564C46.0576 35.5946 48.2551 31.8804 49.0289 27.7948C49.8027 23.7091 49.114 19.4455 47.0867 15.801C45.5623 13.0463 43.3261 10.7326 40.6333 9.11541C37.925 7.48271 34.8608 6.6238 31.7656 6.6238H31.6882L26.4961 6.64701C26.0395 6.64701 25.7378 7.11129 25.7378 7.54461V12.6981C25.7378 13.1856 26.1169 13.5725 26.6121 13.5802L32.284 13.6266C35.0697 13.6498 37.7857 14.9962 39.7511 17.3254C42.1344 20.1574 42.9469 23.833 41.9797 27.4079C41.3916 29.5977 40.0684 31.6096 38.2577 33.0566C36.4238 34.5268 34.1953 35.3393 31.9823 35.347H27.4246C26.5425 35.3625 25.8306 36.0744 25.8306 36.9565V40.7481C25.8306 41.6302 26.5502 42.3498 27.4246 42.3498H31.8507C34.381 42.3575 36.7179 43.2474 38.6214 44.9188C41.0047 47.0158 42.3743 50.0258 42.382 53.1906C42.382 54.6995 42.088 56.162 41.4922 57.5316C40.8731 58.9631 39.9523 60.2244 38.7607 61.2845L38.7452 61.269V61.2923Z" fill="#5F0058"/>
<path d="M22.7517 47.5185L18.1476 47.534C17.6602 47.534 17.2578 47.1239 17.2578 46.6441V43.0924L17.2655 32.8087C17.2655 32.0581 17.2346 31.3927 17.1727 30.6576C17.1108 29.9225 17.6679 29.2183 18.4494 29.2183H22.3339C23.1928 29.2106 23.7267 29.9147 23.6725 30.735C23.6261 31.4623 23.5951 32.1355 23.5951 32.8784V43.0924L23.6184 46.5668C23.6184 47.031 23.2934 47.5185 22.7517 47.5185Z" fill="#FB3524"/>
<path d="M11.2426 33.2031H6.47602C5.9808 33.2031 5.60938 32.7775 5.60938 32.2746V16.319C5.60938 15.7773 5.95758 15.3517 6.52245 15.3595H11.2194C11.7533 15.3595 12.117 15.8083 12.117 16.319V32.2746C12.117 32.7621 11.761 33.2031 11.2426 33.2031Z" fill="#FB3524"/>
<path d="M11.2659 62.0194H6.52253C6.04277 62.0194 5.61719 61.6248 5.61719 61.1218V45.027C5.61719 44.4853 6.06599 44.1758 6.55348 44.1758H11.204C11.7147 44.1758 12.1248 44.5704 12.1248 45.1043V61.1296C12.1248 61.6325 11.7534 61.9421 11.2736 62.0272L11.2659 62.0194Z" fill="#FB3524"/>
<path d="M22.8127 17.4026L18.0694 17.4181C17.5819 17.4181 17.1641 17.0389 17.1641 16.5282V0.944027C17.1641 0.402372 17.5123 0.0619034 18.0152 0H22.7741C23.3002 0 23.6794 0.41011 23.6794 0.944027V16.4508C23.6794 16.9228 23.3621 17.4026 22.8205 17.4026H22.8127Z" fill="#FB3524"/>
<path d="M22.8979 75.5835H17.9844C17.4814 75.5835 17.1719 75.1347 17.1719 74.6627V59.1481C17.1719 58.6529 17.4659 58.1886 18.0153 58.1886H22.7896C23.2307 58.1809 23.6795 58.5136 23.6795 59.0011V74.6549C23.6949 75.1424 23.4009 75.4751 22.8979 75.5757V75.5835Z" fill="#FB3524"/>
<path d="M28.7004 54.598C28.7004 55.2402 28.2284 55.6813 27.6248 55.7432H14.7722C14.2537 55.7432 13.8281 55.3253 13.8281 54.7991V49.7463C13.8281 49.2278 14.246 48.8022 14.7644 48.8022H27.5939C28.1897 48.8487 28.6927 49.2897 28.6927 49.901V54.5902L28.7004 54.598Z" fill="#5F0058"/>
<path d="M14.772 55.759C14.2458 55.759 13.8125 55.3257 13.8125 54.7995V49.7466C13.8125 49.2204 14.2458 48.7871 14.772 48.7871H27.6015C28.236 48.8335 28.7157 49.3133 28.7157 49.9091V54.5983C28.7157 55.2173 28.2669 55.6971 27.6247 55.759H14.772ZM27.6015 48.8258H14.772C14.2613 48.8258 13.8512 49.2436 13.8512 49.7466V54.7995C13.8512 55.3102 14.269 55.7203 14.772 55.7203H27.6247C28.2515 55.6584 28.6848 55.2018 28.6848 54.5983V49.9091C28.6848 49.3365 28.2205 48.8722 27.6015 48.8258Z" fill="#5F0058"/>
<path d="M1.26772 42.3653C0.671903 42.3576 0.269531 41.9475 0.269531 41.4058V36.3994C0.269531 35.8577 0.594524 35.4321 1.15939 35.3702H14.0663C14.6234 35.3625 15.0722 35.8113 15.0722 36.3684V41.3516C15.0722 41.9088 14.6234 42.3576 14.0663 42.3576H1.26772V42.3653Z" fill="#5F0058"/>
<path d="M14.066 42.3892H1.2675C0.67168 42.3814 0.246094 41.9791 0.246094 41.4142V36.4078C0.246094 35.8274 0.602038 35.4173 1.15143 35.3554H14.0583V35.3477C14.3291 35.3477 14.5922 35.456 14.7857 35.6494C14.9791 35.8429 15.0874 36.0982 15.0874 36.3768V41.36C15.0874 41.6309 14.9868 41.8939 14.7857 42.0874C14.5845 42.2808 14.3369 42.3892 14.0583 42.3892H14.066ZM1.2675 42.3505H14.066C14.3291 42.3505 14.5767 42.2499 14.7624 42.0642C14.9482 41.8785 15.0487 41.6309 15.0487 41.3678V36.3845C15.0487 36.1214 14.9404 35.8738 14.7547 35.6881C14.569 35.5024 14.3214 35.4018 14.0583 35.4018H1.15917C0.625252 35.4637 0.284783 35.8661 0.284783 36.4232V41.4297C0.284783 41.9713 0.694893 42.3582 1.2675 42.366V42.3505Z" fill="#5F0058"/>
<path d="M28.7081 25.5421C28.7081 26.2694 28.1974 26.7801 27.4778 26.7647H14.8108C14.2614 26.7647 13.8203 26.3236 13.8203 25.7742V20.8142C13.8203 20.2648 14.2614 19.8237 14.8108 19.8237H27.5551C28.1587 19.8392 28.6926 20.288 28.6926 20.907V25.5421H28.7081Z" fill="#5F0058"/>
<path d="M27.5009 26.7883H27.4854H14.8184C14.5476 26.7883 14.3 26.6799 14.1065 26.4942C13.9131 26.3008 13.8125 26.0532 13.8125 25.7823V20.8223C13.8125 20.2652 14.2613 19.8164 14.8184 19.8164H27.5628C28.2128 19.8319 28.7157 20.3116 28.7235 20.9152V25.5502C28.739 25.9062 28.6074 26.2311 28.383 26.4555C28.1586 26.6722 27.8491 26.796 27.5086 26.796L27.5009 26.7883ZM14.8184 19.8474C14.2845 19.8474 13.8512 20.2807 13.8512 20.8146V25.7746C13.8512 26.03 13.9518 26.2776 14.1375 26.4633C14.3232 26.649 14.5631 26.7496 14.8262 26.7496H27.5086C27.8414 26.7496 28.1431 26.6335 28.3598 26.4246C28.5842 26.2079 28.7003 25.8907 28.7003 25.5502V20.9152C28.6848 20.3348 28.1973 19.8628 27.5705 19.8551H14.8262L14.8184 19.8474Z" fill="#5F0058"/>
<path d="M14.6465 13.5939H1.22896C0.671829 13.5939 0.261719 13.1529 0.261719 12.6422V8.06907C0.261719 7.57384 0.625401 7.07861 1.18253 7.07861H14.4918C15.1108 7.07861 15.5673 7.4423 15.5673 8.07681L15.5519 12.7892C15.5519 13.1993 15.1031 13.6017 14.6388 13.6017L14.6465 13.5939Z" fill="#5F0058"/>
<path d="M1.22881 13.6174C0.679418 13.6174 0.246094 13.1918 0.246094 12.6424V8.06933C0.246094 7.81398 0.338949 7.56637 0.501445 7.37292C0.679418 7.17173 0.919293 7.05566 1.19012 7.05566H14.4994C14.8321 7.05566 15.1261 7.164 15.3196 7.35744C15.4975 7.53542 15.5904 7.78303 15.5904 8.06933L15.5749 12.7817C15.5749 13.2073 15.1184 13.6174 14.6386 13.6174H1.22881ZM14.4994 7.09435H1.19012C0.934769 7.09435 0.702631 7.20269 0.532397 7.39613C0.377639 7.57411 0.284783 7.82172 0.284783 8.06159V12.6347C0.284783 13.1609 0.702631 13.571 1.22881 13.571H14.6464C15.0952 13.571 15.544 13.1764 15.544 12.774L15.5595 8.06159C15.5595 7.78303 15.4666 7.55089 15.2964 7.37292C15.1107 7.18721 14.8243 7.07888 14.4994 7.07888V7.09435Z" fill="#5F0058"/>
<path d="M14.3487 70.4841H1.23287C0.76859 70.4841 0.304315 70.1204 0.304315 69.6639L0.265625 64.9592C0.265625 64.4485 0.637045 63.9688 1.19418 63.9688H14.3641C14.8284 64.0307 15.2463 64.3479 15.2463 64.8277V69.6561C15.2463 70.1127 14.8207 70.4144 14.3564 70.4841H14.3487Z" fill="#5F0058"/>
<path d="M14.3484 70.5003H1.23264C0.729677 70.5003 0.288615 70.1057 0.280877 69.6569L0.242188 64.9522C0.242188 64.6737 0.350518 64.4028 0.536229 64.2171C0.714201 64.0391 0.938601 63.9463 1.18621 63.9463H14.3562C14.7895 64.0082 15.2538 64.31 15.2615 64.8284V69.6569C15.2615 70.1444 14.805 70.4307 14.3562 70.5003H14.3484ZM14.3562 63.985H1.19395C0.954077 63.985 0.737415 64.0778 0.56718 64.2481C0.38147 64.4338 0.280877 64.6891 0.280877 64.96L0.319567 69.6646C0.319567 70.0438 0.714201 70.4694 1.23264 70.4694H14.3484C14.7895 70.4075 15.2228 70.1289 15.2228 69.6646V64.8362C15.2228 64.3409 14.7663 64.0469 14.3562 63.9927V63.985Z" fill="#5F0058"/>
<path d="M1.18413 55.7432C0.510927 55.7432 0.0234375 55.2248 0.0234375 54.5826V49.9475C0.0311754 49.3053 0.526403 48.8101 1.16865 48.8101H3.2192C3.73764 48.8101 4.16323 49.2356 4.16323 49.7541V54.807C4.16323 55.3254 3.74538 55.751 3.22694 55.751H1.18413V55.7432Z" fill="#5F0058"/>
<path d="M1.17616 55.759C0.502965 55.759 0 55.256 0 54.5828V49.9478C0.00773793 49.2978 0.518441 48.7871 1.16843 48.7871H3.21898C3.74516 48.7871 4.17848 49.2204 4.17848 49.7466V54.7995C4.17848 55.0548 4.07789 55.2947 3.89991 55.4804C3.72194 55.6584 3.47433 55.759 3.21898 55.759H1.1839H1.17616ZM1.1839 55.7203H3.21898C3.46659 55.7203 3.69873 55.6197 3.86896 55.4495C4.0392 55.2715 4.13979 55.0471 4.13979 54.7995V49.7466C4.13979 49.2359 3.72194 48.8258 3.21898 48.8258H1.16843C0.541655 48.8258 0.0541655 49.321 0.0386896 49.9478V54.5828C0.0386896 55.2328 0.533917 55.7203 1.17616 55.7203H1.1839Z" fill="#5F0058"/>
<path d="M4.1562 26.0145C4.1562 26.4246 3.82347 26.7573 3.41336 26.7573H1.14615C0.527112 26.7573 0.0550982 26.2621 0.0164086 25.6585V21.0158C-0.00680517 20.3658 0.488422 19.8164 1.14615 19.8164H3.41336C3.82347 19.8164 4.1562 20.1491 4.1562 20.5592V25.999V26.0145Z" fill="#5F0058"/>
<path d="M1.14558 26.7805C0.542018 26.7805 0.0390528 26.293 0.000363189 25.6662V21.0234C-0.00737474 20.6985 0.108694 20.3812 0.333094 20.1491C0.549756 19.9247 0.836059 19.8086 1.14558 19.8086H3.41279C3.83064 19.8086 4.17884 20.1491 4.17884 20.5746V26.0144C4.17884 26.4323 3.83837 26.7805 3.41279 26.7805H1.14558ZM1.14558 19.8473C0.843797 19.8473 0.565232 19.9634 0.356308 20.18C0.139646 20.4044 0.023577 20.7062 0.0313149 21.0234V25.6662C0.0700045 26.2698 0.557494 26.7418 1.13784 26.7418H3.40505C3.80742 26.7418 4.13242 26.4168 4.13242 26.0144V20.5746C4.13242 20.1723 3.80742 19.8473 3.40505 19.8473H1.14558Z" fill="#5F0058"/>
<path d="M68.7415 35.1059C67.6118 33.9762 67.0547 32.4828 67.0547 30.618V18.5004C67.0547 16.6355 67.6196 15.1421 68.7415 14.0278C69.8713 12.9136 71.357 12.3564 73.1986 12.3564C75.0402 12.3564 76.5646 12.9136 77.6866 14.0278C78.8163 15.1421 79.3735 16.6355 79.3735 18.5004V19.0498C79.3735 19.2742 79.2574 19.3902 79.033 19.3902L76.4408 19.5295C76.2164 19.5295 76.1003 19.4134 76.1003 19.189V18.2992C76.1003 17.3629 75.8295 16.6123 75.2956 16.0474C74.7617 15.4826 74.0575 15.1963 73.1986 15.1963C72.3397 15.1963 71.6355 15.4826 71.1171 16.0474C70.5909 16.62 70.3356 17.3706 70.3356 18.2992V30.8656C70.3356 31.8019 70.5987 32.5524 71.1171 33.1173C71.6433 33.6899 72.3319 33.9685 73.1986 33.9685C74.0652 33.9685 74.7617 33.6822 75.2956 33.1173C75.8295 32.5524 76.1003 31.7941 76.1003 30.8656V29.9757C76.1003 29.7513 76.2164 29.6352 76.4408 29.6352L79.033 29.7745C79.2574 29.7745 79.3735 29.8906 79.3735 30.115V30.6257C79.3735 32.4905 78.8086 33.9917 77.6866 35.1137C76.5569 36.2434 75.0634 36.8006 73.1986 36.8006C71.3338 36.8006 69.8713 36.2357 68.7415 35.1137V35.1059Z" fill="#5F0058"/>
<path d="M73.1984 36.8168C71.3568 36.8168 69.8556 36.2442 68.7259 35.1222C67.6039 34.0002 67.0312 32.4835 67.0312 30.6187V18.5011C67.0312 16.6363 67.6039 15.1274 68.7259 14.0131C69.8479 12.8989 71.3568 12.334 73.1984 12.334C75.04 12.334 76.5799 12.8989 77.7019 14.0131C78.8239 15.1274 79.3965 16.6363 79.3965 18.5011V19.0505C79.3965 19.2904 79.2727 19.4142 79.0328 19.4142L76.4406 19.5535C76.2007 19.5535 76.0769 19.4297 76.0769 19.1898V18.2999C76.0769 17.3791 75.8061 16.6208 75.2799 16.0559C74.7537 15.4911 74.0496 15.2048 73.1984 15.2048C72.3472 15.2048 71.6508 15.4911 71.1324 16.0559C70.6139 16.6208 70.3508 17.3714 70.3508 18.2999V30.8663C70.3508 31.7949 70.6139 32.5455 71.1324 33.1026C71.6508 33.6674 72.3472 33.9538 73.1984 33.9538C74.0496 33.9538 74.7537 33.6674 75.2799 33.1026C75.8061 32.5377 76.0769 31.7871 76.0769 30.8663V29.9765C76.0769 29.7366 76.2007 29.6128 76.4406 29.6128L79.0328 29.7521C79.2727 29.7521 79.3887 29.8759 79.3887 30.1157V30.6264C79.3887 32.4913 78.8161 34.0002 77.6941 35.1299C76.5721 36.2519 75.0555 36.8245 73.1906 36.8245L73.1984 36.8168ZM73.1984 12.3727C71.3722 12.3727 69.8711 12.9375 68.7568 14.0363C67.6425 15.1429 67.0699 16.644 67.0699 18.4934V30.611C67.0699 32.4603 67.6348 33.9692 68.7568 35.0835C69.8788 36.1978 71.3722 36.7704 73.1984 36.7704C75.0245 36.7704 76.5566 36.2055 77.6709 35.0835C78.7852 33.9615 79.3578 32.4603 79.3578 30.611V30.1003C79.3578 29.8836 79.2494 29.7753 79.0328 29.7753L76.4406 29.636C76.2239 29.636 76.1156 29.7443 76.1156 29.961V30.8508C76.1156 31.7871 75.8448 32.5455 75.3108 33.1181C74.7769 33.6907 74.065 33.977 73.1984 33.977C72.3317 33.977 71.6276 33.6907 71.1014 33.1181C70.5752 32.5532 70.3121 31.7871 70.3121 30.8508V18.2844C70.3121 17.3482 70.5752 16.5898 71.1014 16.0172C71.6276 15.4446 72.3317 15.1583 73.1984 15.1583C74.065 15.1583 74.7769 15.4446 75.3108 16.0172C75.8448 16.5898 76.1156 17.3482 76.1156 18.2844V19.1743C76.1156 19.391 76.2239 19.4993 76.4406 19.4993L79.0328 19.36C79.2494 19.36 79.3578 19.2517 79.3578 19.035V18.4856C79.3578 16.6363 78.7929 15.1351 77.6709 14.0286C76.5566 12.9221 75.0477 12.3649 73.1984 12.3649V12.3727Z" fill="#5F0058"/>
<path d="M94.3931 15.4596H86.7093C86.6164 15.4596 86.57 15.506 86.57 15.5989V23.0041C86.57 23.0969 86.6164 23.1434 86.7093 23.1434H91.4217C91.6461 23.1434 91.7622 23.2594 91.7622 23.4838V25.635C91.7622 25.8594 91.6461 25.9754 91.4217 25.9754H86.7093C86.6164 25.9754 86.57 26.0219 86.57 26.1147V33.5586C86.57 33.6515 86.6164 33.6979 86.7093 33.6979H94.3931C94.6175 33.6979 94.7335 33.814 94.7335 34.0384V36.1895C94.7335 36.4139 94.6175 36.53 94.3931 36.53H83.6373C83.4129 36.53 83.2969 36.4139 83.2969 36.1895V12.9757C83.2969 12.7513 83.4129 12.6353 83.6373 12.6353H94.3931C94.6175 12.6353 94.7335 12.7513 94.7335 12.9757V15.1269C94.7335 15.3513 94.6175 15.4673 94.3931 15.4673V15.4596Z" fill="#5F0058"/>
<path d="M94.3928 36.5368H83.6371C83.3972 36.5368 83.2734 36.413 83.2734 36.1732V12.9594C83.2734 12.7195 83.3972 12.5957 83.6371 12.5957H94.3928C94.6327 12.5957 94.7565 12.7195 94.7565 12.9594V15.1105C94.7565 15.3504 94.6327 15.4742 94.3928 15.4742H86.7091C86.6317 15.4742 86.593 15.5129 86.593 15.5903V22.9955C86.593 23.0729 86.6317 23.1115 86.7091 23.1115H91.4215C91.6613 23.1115 91.7852 23.2354 91.7852 23.4752V25.6264C91.7852 25.8662 91.6613 25.9901 91.4215 25.9901H86.7091C86.6317 25.9901 86.593 26.0287 86.593 26.1061V33.55C86.593 33.6274 86.6317 33.6661 86.7091 33.6661H94.3928C94.6327 33.6661 94.7565 33.7899 94.7565 34.0298V36.1809C94.7565 36.4208 94.6327 36.5446 94.3928 36.5446V36.5368ZM83.6449 12.6421C83.4282 12.6421 83.3199 12.7505 83.3199 12.9671V36.1809C83.3199 36.3976 83.4282 36.5059 83.6449 36.5059H94.4006C94.6172 36.5059 94.7256 36.3976 94.7256 36.1809V34.0298C94.7256 33.8131 94.6172 33.7048 94.4006 33.7048H86.7168C86.6162 33.7048 86.5621 33.6506 86.5621 33.55V26.1061C86.5621 26.0055 86.6162 25.9514 86.7168 25.9514H91.4292C91.6459 25.9514 91.7542 25.843 91.7542 25.6264V23.4752C91.7542 23.2586 91.6459 23.1502 91.4292 23.1502H86.7168C86.6162 23.1502 86.5621 23.0961 86.5621 22.9955V15.5903C86.5621 15.4897 86.6162 15.4355 86.7168 15.4355H94.4006C94.6172 15.4355 94.7256 15.3272 94.7256 15.1105V12.9594C94.7256 12.7427 94.6172 12.6344 94.4006 12.6344H83.6449V12.6421Z" fill="#5F0058"/>
<path d="M108.361 12.626H110.922C111.147 12.626 111.263 12.742 111.263 12.9664V36.1802C111.263 36.4046 111.147 36.5207 110.922 36.5207H107.99C107.804 36.5207 107.68 36.4278 107.61 36.2499L101.807 20.6502C101.784 20.6038 101.753 20.5883 101.706 20.596C101.66 20.6115 101.637 20.6347 101.637 20.6812L101.668 36.1802C101.668 36.4046 101.552 36.5207 101.327 36.5207H98.735C98.5106 36.5207 98.3945 36.4046 98.3945 36.1802V12.9664C98.3945 12.742 98.5106 12.626 98.735 12.626H101.637C101.822 12.626 101.946 12.7188 102.016 12.8968L107.85 28.4965C107.873 28.5661 107.904 28.5971 107.951 28.5816C107.997 28.5738 108.021 28.5274 108.021 28.4655V12.9664C108.021 12.742 108.137 12.626 108.361 12.626Z" fill="#5F0058"/>
<path d="M110.922 36.5368H107.989C107.796 36.5368 107.664 36.444 107.595 36.2505L101.791 20.6509C101.791 20.6509 101.745 20.6045 101.714 20.6122C101.683 20.6199 101.66 20.6431 101.66 20.6818L101.691 36.1809C101.691 36.4208 101.567 36.5446 101.327 36.5446H98.7348C98.4949 36.5446 98.3711 36.4208 98.3711 36.1809V12.9671C98.3711 12.7272 98.4949 12.6034 98.7348 12.6034H101.637C101.83 12.6034 101.961 12.6963 102.031 12.8897L107.866 28.4894C107.896 28.5745 107.935 28.5668 107.943 28.559C107.958 28.559 107.997 28.5436 107.997 28.4585V12.9594C107.997 12.7195 108.121 12.5957 108.361 12.5957H110.922C111.162 12.5957 111.286 12.7195 111.286 12.9594V36.1732C111.286 36.413 111.162 36.5368 110.922 36.5368ZM101.729 20.5735C101.729 20.5735 101.799 20.589 101.822 20.6354L107.626 36.2428C107.695 36.4208 107.811 36.5059 107.982 36.5059H110.914C111.131 36.5059 111.239 36.3976 111.239 36.1809V12.9671C111.239 12.7505 111.131 12.6421 110.914 12.6421H108.353C108.136 12.6421 108.028 12.7505 108.028 12.9671V28.4662C108.028 28.5668 107.982 28.5977 107.943 28.6055C107.904 28.6132 107.85 28.6055 107.819 28.5049L101.985 12.9052C101.915 12.7272 101.799 12.6421 101.629 12.6421H98.727C98.5104 12.6421 98.402 12.7505 98.402 12.9671V36.1809C98.402 36.3976 98.5104 36.5059 98.727 36.5059H101.319C101.536 36.5059 101.644 36.3976 101.644 36.1809L101.613 20.6818C101.613 20.6277 101.644 20.589 101.698 20.5812C101.706 20.5812 101.722 20.5812 101.729 20.5812V20.5735Z" fill="#5F0058"/>
<path d="M127.68 12.9664V15.1176C127.68 15.342 127.564 15.4581 127.34 15.4581H122.867C122.774 15.4581 122.728 15.5045 122.728 15.5973V36.1802C122.728 36.4046 122.612 36.5207 122.387 36.5207H119.795C119.571 36.5207 119.455 36.4046 119.455 36.1802V15.5973C119.455 15.5045 119.408 15.4581 119.315 15.4581H115.083C114.858 15.4581 114.742 15.342 114.742 15.1176V12.9664C114.742 12.742 114.858 12.626 115.083 12.626H127.34C127.564 12.626 127.68 12.742 127.68 12.9664Z" fill="#5F0058"/>
<path d="M122.387 36.5368H119.795C119.555 36.5368 119.431 36.413 119.431 36.1732V15.5903C119.431 15.5129 119.392 15.4742 119.315 15.4742H115.082C114.843 15.4742 114.719 15.3504 114.719 15.1105V12.9594C114.719 12.7195 114.843 12.5957 115.082 12.5957H127.339C127.579 12.5957 127.703 12.7195 127.703 12.9594V15.1105C127.703 15.3504 127.579 15.4742 127.339 15.4742H122.867C122.789 15.4742 122.751 15.5129 122.751 15.5903V36.1732C122.751 36.413 122.627 36.5368 122.387 36.5368ZM115.082 12.6421C114.866 12.6421 114.757 12.7505 114.757 12.9671V15.1183C114.757 15.3349 114.866 15.4433 115.082 15.4433H119.315C119.416 15.4433 119.47 15.4974 119.47 15.598V36.1809C119.47 36.3976 119.578 36.5059 119.795 36.5059H122.387C122.604 36.5059 122.712 36.3976 122.712 36.1809V15.598C122.712 15.4974 122.766 15.4433 122.867 15.4433H127.339C127.556 15.4433 127.664 15.3349 127.664 15.1183V12.9671C127.664 12.7505 127.556 12.6421 127.339 12.6421H115.082Z" fill="#5F0058"/>
<path d="M140.248 36.2514L137.107 26.076C137.084 26.0064 137.037 25.9754 136.968 25.9754H134.576C134.484 25.9754 134.437 26.0219 134.437 26.1147V36.1895C134.437 36.4139 134.321 36.53 134.097 36.53H131.505C131.28 36.53 131.164 36.4139 131.164 36.1895V12.9757C131.164 12.7513 131.28 12.6353 131.505 12.6353H137.618C138.778 12.6353 139.8 12.9216 140.689 13.4864C141.579 14.059 142.268 14.856 142.755 15.8929C143.243 16.9298 143.491 18.106 143.491 19.4292C143.491 20.8607 143.197 22.1065 142.601 23.1666C142.005 24.2267 141.2 24.9927 140.179 25.4725C140.109 25.5421 140.086 25.6118 140.109 25.6737L143.591 36.1508L143.622 36.2901C143.622 36.4526 143.522 36.53 143.313 36.53H140.651C140.45 36.53 140.31 36.4371 140.241 36.2591L140.248 36.2514ZM134.445 15.5911V23.2362C134.445 23.3291 134.491 23.3755 134.584 23.3755H137.107C138.043 23.3755 138.794 23.0196 139.359 22.2999C139.931 21.5803 140.21 20.6363 140.21 19.4524C140.21 18.2685 139.923 17.2471 139.359 16.5352C138.786 15.8155 138.035 15.4596 137.107 15.4596H134.584C134.491 15.4596 134.445 15.506 134.445 15.5989V15.5911Z" fill="#5F0058"/>
<path d="M143.32 36.5368H140.658C140.442 36.5368 140.302 36.444 140.233 36.2505L137.091 26.0752C137.068 26.0133 137.029 25.9823 136.975 25.9823H134.584C134.507 25.9823 134.468 26.021 134.468 26.0984V36.1732C134.468 36.413 134.344 36.5368 134.104 36.5368H131.512C131.272 36.5368 131.148 36.413 131.148 36.1732V12.9594C131.148 12.7195 131.272 12.5957 131.512 12.5957H137.625C138.786 12.5957 139.823 12.882 140.705 13.4546C141.595 14.0195 142.291 14.832 142.779 15.8688C143.266 16.9057 143.514 18.0974 143.514 19.4128C143.514 20.8443 143.212 22.1056 142.624 23.158C142.036 24.2103 141.215 24.9919 140.194 25.4716C140.132 25.5335 140.109 25.5954 140.132 25.6573L143.614 36.1345L143.653 36.2738C143.653 36.4517 143.545 36.5368 143.328 36.5368H143.32ZM140.264 36.2428C140.326 36.4208 140.457 36.5059 140.658 36.5059H143.32C143.514 36.5059 143.606 36.4363 143.606 36.2892L143.576 36.1577L140.093 25.6805C140.07 25.6032 140.093 25.5258 140.171 25.4561C141.185 24.9764 141.997 24.2026 142.585 23.158C143.173 22.1056 143.467 20.8521 143.467 19.4283C143.467 18.1206 143.22 16.9289 142.732 15.8998C142.245 14.8707 141.556 14.0659 140.674 13.501C139.792 12.9362 138.763 12.6499 137.61 12.6499H131.497C131.28 12.6499 131.172 12.7582 131.172 12.9749V36.1886C131.172 36.4053 131.28 36.5136 131.497 36.5136H134.089C134.306 36.5136 134.414 36.4053 134.414 36.1886V26.1139C134.414 26.0133 134.468 25.9591 134.569 25.9591H136.96C137.037 25.9591 137.091 25.9978 137.114 26.0752L140.256 36.2505L140.264 36.2428ZM137.107 23.3978H134.584C134.483 23.3978 134.429 23.3437 134.429 23.2431V15.598C134.429 15.4974 134.483 15.4433 134.584 15.4433H137.107C138.043 15.4433 138.801 15.8069 139.374 16.5266C139.946 17.2462 140.233 18.2289 140.233 19.4592C140.233 20.6896 139.946 21.6026 139.374 22.3223C138.801 23.0419 138.043 23.4056 137.107 23.4056V23.3978ZM134.576 15.4742C134.499 15.4742 134.46 15.5129 134.46 15.5903V23.2354C134.46 23.3127 134.499 23.3514 134.576 23.3514H137.099C138.02 23.3514 138.778 22.9955 139.335 22.2836C139.9 21.5717 140.186 20.6199 140.186 19.4438C140.186 18.2676 139.9 17.2462 139.335 16.5343C138.77 15.8224 138.02 15.4665 137.099 15.4665H134.576V15.4742Z" fill="#5F0058"/>
<path d="M148.488 34.9364C147.358 33.6983 146.801 32.0656 146.801 30.0383V12.9684C146.801 12.744 146.917 12.6279 147.141 12.6279H149.733C149.958 12.6279 150.074 12.744 150.074 12.9684V30.3787C150.074 31.4466 150.337 32.3132 150.879 32.9709C151.413 33.6287 152.117 33.9614 152.976 33.9614C153.835 33.9614 154.577 33.6287 155.111 32.9709C155.645 32.3132 155.916 31.4466 155.916 30.3787V12.9684C155.916 12.744 156.032 12.6279 156.257 12.6279H158.849C159.073 12.6279 159.189 12.744 159.189 12.9684V30.0383C159.189 32.0656 158.617 33.6983 157.479 34.9364C156.342 36.1744 154.84 36.7935 152.976 36.7935C151.111 36.7935 149.61 36.1744 148.488 34.9364Z" fill="#5F0058"/>
<path d="M152.975 36.8174C151.111 36.8174 149.594 36.1907 148.472 34.9526C147.35 33.7145 146.777 32.0586 146.777 30.039V12.9692C146.777 12.7293 146.901 12.6055 147.141 12.6055H149.733C149.973 12.6055 150.097 12.7293 150.097 12.9692V30.3795C150.097 31.4396 150.368 32.3062 150.894 32.964C151.42 33.6139 152.124 33.9467 152.975 33.9467C153.827 33.9467 154.562 33.6139 155.096 32.964C155.622 32.3062 155.893 31.4396 155.893 30.3795V12.9692C155.893 12.7293 156.016 12.6055 156.256 12.6055H158.849C159.088 12.6055 159.212 12.7293 159.212 12.9692V30.039C159.212 32.0586 158.64 33.7145 157.502 34.9526C156.365 36.1907 154.848 36.8174 152.983 36.8174H152.975ZM147.141 12.6442C146.924 12.6442 146.816 12.7525 146.816 12.9692V30.039C146.816 32.0509 147.381 33.6913 148.503 34.9216C149.617 36.152 151.126 36.7788 152.975 36.7788C154.825 36.7788 156.341 36.152 157.463 34.9216C158.593 33.6913 159.166 32.0509 159.166 30.039V12.9692C159.166 12.7525 159.057 12.6442 158.841 12.6442H156.249C156.032 12.6442 155.924 12.7525 155.924 12.9692V30.3795C155.924 31.4473 155.653 32.3217 155.119 32.9872C154.585 33.6449 153.858 33.9854 152.968 33.9854C152.078 33.9854 151.389 33.6526 150.855 32.9872C150.321 32.3294 150.05 31.4473 150.05 30.3795V12.9692C150.05 12.7525 149.942 12.6442 149.725 12.6442H147.133H147.141Z" fill="#5F0058"/>
<path d="M163.594 36.1802V12.9664C163.594 12.742 163.71 12.626 163.934 12.626H166.526C166.751 12.626 166.867 12.742 166.867 12.9664V33.5493C166.867 33.6422 166.913 33.6886 167.006 33.6886H174.651C174.876 33.6886 174.992 33.8047 174.992 34.0291V36.1802C174.992 36.4046 174.876 36.5207 174.651 36.5207H163.934C163.71 36.5207 163.594 36.4046 163.594 36.1802Z" fill="#5F0058"/>
<path d="M174.659 36.5368H163.942C163.702 36.5368 163.578 36.413 163.578 36.1732V12.9594C163.578 12.7195 163.702 12.5957 163.942 12.5957H166.534C166.774 12.5957 166.898 12.7195 166.898 12.9594V33.5423C166.898 33.6196 166.936 33.6583 167.014 33.6583H174.659C174.899 33.6583 175.023 33.7821 175.023 34.022V36.1732C175.023 36.413 174.899 36.5368 174.659 36.5368ZM163.934 12.6421C163.717 12.6421 163.609 12.7505 163.609 12.9671V36.1809C163.609 36.3976 163.717 36.5059 163.934 36.5059H174.651C174.868 36.5059 174.976 36.3976 174.976 36.1809V34.0298C174.976 33.8131 174.868 33.7048 174.651 33.7048H167.006C166.905 33.7048 166.851 33.6506 166.851 33.55V12.9671C166.851 12.7505 166.743 12.6421 166.526 12.6421H163.934Z" fill="#5F0058"/>
<path d="M186.21 35.1059C185.081 33.9762 184.523 32.4828 184.523 30.618V18.5004C184.523 16.6355 185.088 15.1421 186.21 14.0278C187.34 12.9136 188.826 12.3564 190.667 12.3564C192.509 12.3564 194.033 12.9136 195.155 14.0278C196.285 15.1421 196.842 16.6355 196.842 18.5004V19.0498C196.842 19.2742 196.726 19.3902 196.502 19.3902L193.91 19.5295C193.685 19.5295 193.569 19.4134 193.569 19.189V18.2992C193.569 17.3629 193.298 16.6123 192.764 16.0474C192.23 15.4826 191.526 15.1963 190.667 15.1963C189.808 15.1963 189.104 15.4826 188.586 16.0474C188.06 16.62 187.804 17.3706 187.804 18.2992V30.8656C187.804 31.8019 188.067 32.5524 188.586 33.1173C189.112 33.6899 189.801 33.9685 190.667 33.9685C191.534 33.9685 192.23 33.6822 192.764 33.1173C193.298 32.5524 193.569 31.7941 193.569 30.8656V29.9757C193.569 29.7513 193.685 29.6352 193.91 29.6352L196.502 29.7745C196.726 29.7745 196.842 29.8906 196.842 30.115V30.6257C196.842 32.4905 196.277 33.9917 195.155 35.1137C194.026 36.2434 192.532 36.8006 190.667 36.8006C188.803 36.8006 187.34 36.2357 186.21 35.1137V35.1059Z" fill="#5F0058"/>
<path d="M190.667 36.8168C188.826 36.8168 187.324 36.2442 186.195 35.1222C185.073 34.0002 184.5 32.4835 184.5 30.6187V18.5011C184.5 16.6363 185.073 15.1274 186.195 14.0131C187.317 12.8989 188.826 12.334 190.667 12.334C192.509 12.334 194.049 12.8989 195.171 14.0131C196.293 15.1274 196.865 16.6363 196.865 18.5011V19.0505C196.865 19.2904 196.741 19.4142 196.502 19.4142L193.909 19.5535C193.669 19.5535 193.546 19.4297 193.546 19.1898V18.2999C193.546 17.3791 193.275 16.6208 192.749 16.0559C192.222 15.4911 191.518 15.2048 190.667 15.2048C189.816 15.2048 189.12 15.4911 188.601 16.0559C188.083 16.6208 187.82 17.3714 187.82 18.2999V30.8663C187.82 31.7949 188.083 32.5455 188.601 33.1026C189.12 33.6674 189.816 33.9538 190.667 33.9538C191.518 33.9538 192.222 33.6674 192.749 33.1026C193.275 32.5377 193.546 31.7871 193.546 30.8663V29.9765C193.546 29.7366 193.669 29.6128 193.909 29.6128L196.502 29.7521C196.741 29.7521 196.857 29.8759 196.857 30.1157V30.6264C196.857 32.4913 196.285 34.0002 195.163 35.1299C194.041 36.2519 192.524 36.8245 190.659 36.8245L190.667 36.8168ZM190.667 12.3727C188.841 12.3727 187.34 12.9375 186.226 14.0363C185.111 15.1429 184.539 16.644 184.539 18.4934V30.611C184.539 32.4603 185.104 33.9692 186.226 35.0835C187.348 36.1978 188.841 36.7704 190.667 36.7704C192.493 36.7704 194.025 36.2055 195.14 35.0835C196.254 33.9615 196.827 32.4603 196.827 30.611V30.1003C196.827 29.8836 196.718 29.7753 196.502 29.7753L193.909 29.636C193.693 29.636 193.584 29.7443 193.584 29.961V30.8508C193.584 31.7871 193.313 32.5455 192.78 33.1181C192.246 33.6907 191.534 33.977 190.667 33.977C189.8 33.977 189.096 33.6907 188.57 33.1181C188.044 32.5532 187.781 31.7871 187.781 30.8508V18.2844C187.781 17.3482 188.044 16.5898 188.57 16.0172C189.096 15.4446 189.8 15.1583 190.667 15.1583C191.534 15.1583 192.246 15.4446 192.78 16.0172C193.313 16.5898 193.584 17.3482 193.584 18.2844V19.1743C193.584 19.391 193.693 19.4993 193.909 19.4993L196.502 19.36C196.718 19.36 196.827 19.2517 196.827 19.035V18.4856C196.827 16.6363 196.262 15.1351 195.14 14.0286C194.025 12.9221 192.516 12.3649 190.667 12.3649V12.3727Z" fill="#5F0058"/>
<path d="M202.292 34.9364C201.163 33.6983 200.605 32.0656 200.605 30.0383V12.9684C200.605 12.744 200.722 12.6279 200.946 12.6279H203.538C203.763 12.6279 203.879 12.744 203.879 12.9684V30.3787C203.879 31.4466 204.142 32.3132 204.683 32.9709C205.217 33.6287 205.921 33.9614 206.78 33.9614C207.639 33.9614 208.382 33.6287 208.916 32.9709C209.45 32.3132 209.721 31.4466 209.721 30.3787V12.9684C209.721 12.744 209.837 12.6279 210.061 12.6279H212.653C212.878 12.6279 212.994 12.744 212.994 12.9684V30.0383C212.994 32.0656 212.421 33.6983 211.284 34.9364C210.146 36.1744 208.645 36.7935 206.78 36.7935C204.916 36.7935 203.414 36.1744 202.292 34.9364Z" fill="#5F0058"/>
<path d="M206.78 36.8174C204.915 36.8174 203.399 36.1907 202.277 34.9526C201.155 33.7145 200.582 32.0586 200.582 30.039V12.9692C200.582 12.7293 200.706 12.6055 200.946 12.6055H203.538C203.778 12.6055 203.902 12.7293 203.902 12.9692V30.3795C203.902 31.4396 204.172 32.3062 204.699 32.964C205.225 33.6139 205.929 33.9467 206.78 33.9467C207.631 33.9467 208.366 33.6139 208.9 32.964C209.426 32.3062 209.697 31.4396 209.697 30.3795V12.9692C209.697 12.7293 209.821 12.6055 210.061 12.6055H212.653C212.893 12.6055 213.017 12.7293 213.017 12.9692V30.039C213.017 32.0586 212.444 33.7145 211.307 34.9526C210.169 36.1907 208.653 36.8174 206.788 36.8174H206.78ZM200.946 12.6442C200.729 12.6442 200.621 12.7525 200.621 12.9692V30.039C200.621 32.0509 201.186 33.6913 202.308 34.9216C203.422 36.152 204.931 36.7788 206.78 36.7788C208.629 36.7788 210.146 36.152 211.268 34.9216C212.398 33.6913 212.97 32.0509 212.97 30.039V12.9692C212.97 12.7525 212.862 12.6442 212.645 12.6442H210.053C209.837 12.6442 209.728 12.7525 209.728 12.9692V30.3795C209.728 31.4473 209.457 32.3217 208.924 32.9872C208.39 33.6449 207.662 33.9854 206.772 33.9854C205.883 33.9854 205.194 33.6526 204.66 32.9872C204.126 32.3294 203.855 31.4473 203.855 30.3795V12.9692C203.855 12.7525 203.747 12.6442 203.53 12.6442H200.938H200.946Z" fill="#5F0058"/>
<path d="M217.395 36.1802V12.9664C217.395 12.742 217.511 12.626 217.735 12.626H220.327C220.552 12.626 220.668 12.742 220.668 12.9664V33.5493C220.668 33.6422 220.714 33.6886 220.807 33.6886H228.452C228.676 33.6886 228.792 33.8047 228.792 34.0291V36.1802C228.792 36.4046 228.676 36.5207 228.452 36.5207H217.735C217.511 36.5207 217.395 36.4046 217.395 36.1802Z" fill="#5F0058"/>
<path d="M228.46 36.5368H217.743C217.503 36.5368 217.379 36.413 217.379 36.1732V12.9594C217.379 12.7195 217.503 12.5957 217.743 12.5957H220.335C220.575 12.5957 220.698 12.7195 220.698 12.9594V33.5423C220.698 33.6196 220.737 33.6583 220.815 33.6583H228.46C228.699 33.6583 228.823 33.7821 228.823 34.022V36.1732C228.823 36.413 228.699 36.5368 228.46 36.5368ZM217.743 12.6421C217.526 12.6421 217.418 12.7505 217.418 12.9671V36.1809C217.418 36.3976 217.526 36.5059 217.743 36.5059H228.46C228.676 36.5059 228.785 36.3976 228.785 36.1809V34.0298C228.785 33.8131 228.676 33.7048 228.46 33.7048H220.815C220.714 33.7048 220.66 33.6506 220.66 33.55V12.9671C220.66 12.7505 220.551 12.6421 220.335 12.6421H217.743Z" fill="#5F0058"/>
<path d="M241.09 12.9664V15.1176C241.09 15.342 240.974 15.4581 240.75 15.4581H236.277C236.184 15.4581 236.138 15.5045 236.138 15.5973V36.1802C236.138 36.4046 236.022 36.5207 235.797 36.5207H233.205C232.981 36.5207 232.865 36.4046 232.865 36.1802V15.5973C232.865 15.5045 232.818 15.4581 232.725 15.4581H228.493C228.268 15.4581 228.152 15.342 228.152 15.1176V12.9664C228.152 12.742 228.268 12.626 228.493 12.626H240.75C240.974 12.626 241.09 12.742 241.09 12.9664Z" fill="#5F0058"/>
<path d="M235.805 36.5368H233.213C232.973 36.5368 232.849 36.413 232.849 36.1732V15.5903C232.849 15.5129 232.81 15.4742 232.733 15.4742H228.5C228.261 15.4742 228.137 15.3504 228.137 15.1105V12.9594C228.137 12.7195 228.261 12.5957 228.5 12.5957H240.757C240.997 12.5957 241.121 12.7195 241.121 12.9594V15.1105C241.121 15.3504 240.997 15.4742 240.757 15.4742H236.285C236.207 15.4742 236.169 15.5129 236.169 15.5903V36.1732C236.169 36.413 236.045 36.5368 235.805 36.5368ZM228.493 12.6421C228.276 12.6421 228.168 12.7505 228.168 12.9671V15.1183C228.168 15.3349 228.276 15.4433 228.493 15.4433H232.725C232.826 15.4433 232.88 15.4974 232.88 15.598V36.1809C232.88 36.3976 232.988 36.5059 233.205 36.5059H235.797C236.014 36.5059 236.122 36.3976 236.122 36.1809V15.598C236.122 15.4974 236.176 15.4433 236.277 15.4433H240.75C240.966 15.4433 241.075 15.3349 241.075 15.1183V12.9671C241.075 12.7505 240.966 12.6421 240.75 12.6421H228.493Z" fill="#5F0058"/>
<path d="M246.097 34.9364C244.967 33.6983 244.41 32.0656 244.41 30.0383V12.9684C244.41 12.744 244.526 12.6279 244.751 12.6279H247.343C247.567 12.6279 247.683 12.744 247.683 12.9684V30.3787C247.683 31.4466 247.954 32.3132 248.488 32.9709C249.022 33.6287 249.718 33.9614 250.585 33.9614C251.452 33.9614 252.187 33.6287 252.721 32.9709C253.255 32.3132 253.525 31.4466 253.525 30.3787V12.9684C253.525 12.744 253.642 12.6279 253.866 12.6279H256.458C256.683 12.6279 256.799 12.744 256.799 12.9684V30.0383C256.799 32.0656 256.226 33.6983 255.089 34.9364C253.951 36.1744 252.45 36.7935 250.585 36.7935C248.72 36.7935 247.219 36.1744 246.097 34.9364Z" fill="#5F0058"/>
<path d="M250.585 36.8174C248.72 36.8174 247.203 36.1907 246.081 34.9526C244.959 33.7145 244.387 32.0664 244.387 30.039V12.9692C244.387 12.7293 244.511 12.6055 244.75 12.6055H247.343C247.582 12.6055 247.706 12.7293 247.706 12.9692V30.3795C247.706 31.4396 247.977 32.3062 248.503 32.964C249.029 33.6139 249.734 33.9467 250.585 33.9467C251.436 33.9467 252.179 33.6139 252.705 32.964C253.231 32.3062 253.502 31.4396 253.502 30.3795V12.9692C253.502 12.7293 253.626 12.6055 253.866 12.6055H256.458C256.698 12.6055 256.822 12.7293 256.822 12.9692V30.039C256.822 32.0586 256.249 33.7145 255.111 34.9526C253.974 36.1907 252.457 36.8174 250.593 36.8174H250.585ZM244.75 12.6442C244.534 12.6442 244.425 12.7525 244.425 12.9692V30.039C244.425 32.0509 244.99 33.6913 246.112 34.9216C247.227 36.152 248.735 36.7788 250.585 36.7788C252.434 36.7788 253.951 36.152 255.081 34.9216C256.21 33.6913 256.783 32.0509 256.783 30.039V12.9692C256.783 12.7525 256.675 12.6442 256.458 12.6442H253.866C253.649 12.6442 253.541 12.7525 253.541 12.9692V30.3795C253.541 31.4473 253.27 32.3217 252.736 32.9872C252.202 33.6449 251.475 33.9854 250.585 33.9854C249.695 33.9854 249.006 33.6526 248.472 32.9872C247.938 32.3294 247.668 31.4473 247.668 30.3795V12.9692C247.668 12.7525 247.559 12.6442 247.343 12.6442H244.75Z" fill="#5F0058"/>
<path d="M270.284 36.2514L267.142 26.076C267.119 26.0064 267.072 25.9754 267.003 25.9754H264.612C264.519 25.9754 264.472 26.0219 264.472 26.1147V36.1895C264.472 36.4139 264.356 36.53 264.132 36.53H261.54C261.315 36.53 261.199 36.4139 261.199 36.1895V12.9757C261.199 12.7513 261.315 12.6353 261.54 12.6353H267.653C268.813 12.6353 269.835 12.9216 270.725 13.4864C271.614 14.059 272.303 14.856 272.791 15.8929C273.278 16.9298 273.526 18.106 273.526 19.4292C273.526 20.8607 273.232 22.1065 272.636 23.1666C272.04 24.2267 271.235 24.9927 270.214 25.4725C270.144 25.5421 270.121 25.6118 270.144 25.6737L273.626 36.1508L273.657 36.2901C273.657 36.4526 273.557 36.53 273.348 36.53H270.686C270.485 36.53 270.345 36.4371 270.276 36.2591L270.284 36.2514ZM264.48 15.5911V23.2362C264.48 23.3291 264.527 23.3755 264.619 23.3755H267.142C268.078 23.3755 268.829 23.0196 269.394 22.2999C269.966 21.5803 270.245 20.6363 270.245 19.4524C270.245 18.2685 269.959 17.2471 269.394 16.5352C268.821 15.8155 268.07 15.4596 267.142 15.4596H264.619C264.527 15.4596 264.48 15.506 264.48 15.5989V15.5911Z" fill="#5F0058"/>
<path d="M273.355 36.5368H270.693C270.477 36.5368 270.338 36.444 270.268 36.2505L267.126 26.0752C267.103 26.0133 267.064 25.9823 267.01 25.9823H264.619C264.542 25.9823 264.503 26.021 264.503 26.0984V36.1732C264.503 36.413 264.379 36.5368 264.139 36.5368H261.547C261.307 36.5368 261.184 36.413 261.184 36.1732V12.9594C261.184 12.7195 261.307 12.5957 261.547 12.5957H267.66C268.821 12.5957 269.858 12.882 270.74 13.4546C271.63 14.0195 272.326 14.832 272.814 15.8688C273.301 16.9057 273.549 18.0974 273.549 19.4128C273.549 20.8443 273.247 22.1056 272.659 23.158C272.071 24.2103 271.251 24.9919 270.229 25.4716C270.167 25.5335 270.144 25.5954 270.167 25.6573L273.649 36.1345L273.688 36.2738C273.688 36.4517 273.58 36.5368 273.363 36.5368H273.355ZM270.299 36.2428C270.361 36.4208 270.492 36.5059 270.693 36.5059H273.355C273.549 36.5059 273.642 36.4363 273.642 36.2892L273.611 36.1577L270.129 25.6805C270.105 25.6032 270.129 25.5258 270.206 25.4561C271.22 24.9764 272.032 24.2026 272.62 23.158C273.208 22.1056 273.502 20.8521 273.502 19.4283C273.502 18.1206 273.255 16.9289 272.767 15.8998C272.28 14.8707 271.591 14.0659 270.709 13.501C269.827 12.9362 268.798 12.6499 267.645 12.6499H261.532C261.315 12.6499 261.207 12.7582 261.207 12.9749V36.1886C261.207 36.4053 261.315 36.5136 261.532 36.5136H264.124C264.341 36.5136 264.449 36.4053 264.449 36.1886V26.1139C264.449 26.0133 264.503 25.9591 264.604 25.9591H266.995C267.072 25.9591 267.126 25.9978 267.15 26.0752L270.291 36.2505L270.299 36.2428ZM267.142 23.3978H264.619C264.519 23.3978 264.464 23.3437 264.464 23.2431V15.598C264.464 15.4974 264.519 15.4433 264.619 15.4433H267.142C268.078 15.4433 268.836 15.8069 269.409 16.5266C269.982 17.2462 270.268 18.2289 270.268 19.4592C270.268 20.6896 269.982 21.6026 269.409 22.3223C268.836 23.0419 268.078 23.4056 267.142 23.4056V23.3978ZM264.611 15.4742C264.534 15.4742 264.495 15.5129 264.495 15.5903V23.2354C264.495 23.3127 264.534 23.3514 264.611 23.3514H267.134C268.055 23.3514 268.813 22.9955 269.37 22.2836C269.935 21.5717 270.221 20.6199 270.221 19.4438C270.221 18.2676 269.935 17.2462 269.37 16.5343C268.805 15.8224 268.055 15.4665 267.134 15.4665H264.611V15.4742Z" fill="#5F0058"/>
<path d="M286.324 36.2131L285.574 32.29C285.574 32.2436 285.558 32.2126 285.519 32.1894C285.481 32.1662 285.442 32.1585 285.403 32.1585H279.84C279.793 32.1585 279.755 32.1739 279.724 32.1894C279.693 32.2049 279.67 32.2436 279.67 32.29L278.95 36.2131C278.927 36.4143 278.803 36.5226 278.571 36.5226H275.979C275.863 36.5226 275.777 36.4917 275.723 36.4221C275.669 36.3524 275.646 36.2596 275.669 36.1512L280.753 12.9374C280.799 12.7363 280.923 12.6279 281.132 12.6279H284.173C284.397 12.6279 284.529 12.7285 284.552 12.9374L289.675 36.1512V36.2209C289.675 36.4221 289.574 36.5304 289.365 36.5304H286.703C286.502 36.5304 286.371 36.4298 286.324 36.2209V36.2131ZM280.351 29.5585H284.893C284.962 29.5585 284.993 29.5121 284.993 29.4192L282.672 17.3016C282.649 17.2552 282.626 17.232 282.602 17.232C282.579 17.232 282.556 17.2552 282.533 17.3016L280.242 29.4192C280.242 29.5121 280.273 29.5585 280.343 29.5585H280.351Z" fill="#5F0058"/>
<path d="M289.367 36.5389H286.705C286.488 36.5389 286.356 36.4305 286.31 36.2139L285.559 32.2908C285.559 32.2443 285.544 32.2211 285.521 32.1979C285.49 32.1747 285.451 32.1669 285.412 32.1669H279.849C279.81 32.1669 279.771 32.1747 279.741 32.1979C279.71 32.2134 279.702 32.2443 279.702 32.283L278.982 36.2139C278.959 36.4305 278.827 36.5389 278.588 36.5389H275.995C275.879 36.5389 275.786 36.5002 275.725 36.4305C275.663 36.3609 275.647 36.2603 275.67 36.1442L280.754 12.9305C280.801 12.7138 280.932 12.6055 281.149 12.6055H284.19C284.43 12.6055 284.561 12.7138 284.584 12.9305L289.707 36.1442V36.2139C289.707 36.4305 289.599 36.5389 289.382 36.5389H289.367ZM286.349 36.2139C286.395 36.4073 286.511 36.5079 286.705 36.5079H289.367C289.56 36.5079 289.653 36.4151 289.653 36.2216V36.152L284.53 12.9382C284.507 12.7448 284.391 12.6442 284.174 12.6442H281.133C280.94 12.6442 280.824 12.737 280.777 12.9382L275.694 36.152C275.67 36.2603 275.694 36.3454 275.74 36.4073C275.794 36.4692 275.872 36.5002 275.98 36.5002H278.572C278.789 36.5002 278.905 36.4073 278.928 36.2061L279.648 32.2753C279.648 32.2288 279.671 32.1902 279.71 32.1592C279.748 32.136 279.787 32.1205 279.841 32.1205H285.405C285.451 32.1205 285.498 32.136 285.536 32.1592C285.575 32.1824 285.598 32.2288 285.598 32.2753L286.349 36.1984V36.2139ZM284.894 29.5747H280.352C280.298 29.5747 280.228 29.5515 280.228 29.42L282.518 17.2947C282.565 17.1863 282.635 17.1863 282.689 17.2947L285.01 29.42C285.01 29.5515 284.948 29.5825 284.886 29.5825L284.894 29.5747ZM282.557 17.3101L280.267 29.4277C280.267 29.5283 280.313 29.5438 280.352 29.5438H284.894C284.894 29.5438 284.979 29.5283 284.979 29.4277L282.658 17.3179C282.635 17.2714 282.611 17.2637 282.611 17.2637C282.611 17.2637 282.588 17.2637 282.565 17.3179L282.557 17.3101Z" fill="#5F0058"/>
<path d="M292.57 36.1802V12.9664C292.57 12.742 292.686 12.626 292.911 12.626H295.503C295.727 12.626 295.843 12.742 295.843 12.9664V33.5493C295.843 33.6422 295.89 33.6886 295.983 33.6886H303.628C303.852 33.6886 303.968 33.8047 303.968 34.0291V36.1802C303.968 36.4046 303.852 36.5207 303.628 36.5207H292.911C292.686 36.5207 292.57 36.4046 292.57 36.1802Z" fill="#5F0058"/>
<path d="M303.635 36.5368H292.918C292.678 36.5368 292.555 36.413 292.555 36.1732V12.9594C292.555 12.7195 292.678 12.5957 292.918 12.5957H295.511C295.75 12.5957 295.874 12.7195 295.874 12.9594V33.5423C295.874 33.6196 295.913 33.6583 295.99 33.6583H303.635C303.875 33.6583 303.999 33.7821 303.999 34.022V36.1732C303.999 36.413 303.875 36.5368 303.635 36.5368ZM292.918 12.6421C292.702 12.6421 292.593 12.7505 292.593 12.9671V36.1809C292.593 36.3976 292.702 36.5059 292.918 36.5059H303.635C303.852 36.5059 303.96 36.3976 303.96 36.1809V34.0298C303.96 33.8131 303.852 33.7048 303.635 33.7048H295.99C295.89 33.7048 295.836 33.6506 295.836 33.55V12.9671C295.836 12.7505 295.727 12.6421 295.511 12.6421H292.918Z" fill="#5F0058"/>
<path d="M78.1979 68.4561C77.0295 69.5936 75.4819 70.1662 73.5707 70.1662H67.8678C67.6434 70.1662 67.5273 70.0501 67.5273 69.8257V46.612C67.5273 46.3876 67.6434 46.2715 67.8678 46.2715H73.0909C75.1647 46.2715 76.7819 46.8131 77.9581 47.8965C79.1265 48.9798 79.7146 50.5506 79.7146 52.6243C79.7146 55.085 78.8402 56.7796 77.0837 57.7081C76.9676 57.7778 76.9599 57.832 77.0527 57.8784C77.9658 58.4278 78.6777 59.1861 79.1884 60.1688C79.6991 61.1515 79.9545 62.3122 79.9545 63.6509C79.9545 65.7246 79.3664 67.3264 78.1979 68.4639V68.4561ZM70.8082 49.2351V56.4701C70.8082 56.5629 70.8547 56.6094 70.9475 56.6094H73.1296C74.1974 56.6094 75.0331 56.2844 75.6212 55.6344C76.2093 54.9844 76.5111 54.0791 76.5111 52.9184C76.5111 51.7577 76.217 50.775 75.6212 50.1018C75.0331 49.4286 74.1974 49.0958 73.1296 49.0958H70.9475C70.8547 49.0958 70.8082 49.1423 70.8082 49.2351ZM75.776 66.2353C76.3795 65.5312 76.6813 64.5253 76.6813 63.233C76.6813 61.9408 76.3873 60.8807 75.7914 60.1456C75.2034 59.4027 74.3831 59.0391 73.3308 59.0391H70.9398C70.8469 59.0391 70.8005 59.0855 70.8005 59.1783V67.1639C70.8005 67.2567 70.8469 67.3032 70.9398 67.3032H73.2921C74.3367 67.3032 75.1647 66.9472 75.7682 66.2431L75.776 66.2353Z" fill="#5F0058"/>
<path d="M73.5704 70.1824H67.8676C67.6277 70.1824 67.5039 70.0586 67.5039 69.8187V46.6049C67.5039 46.365 67.6277 46.2412 67.8676 46.2412H73.0907C75.1567 46.2412 76.7972 46.7906 77.9656 47.8662C79.134 48.9495 79.7298 50.5435 79.7298 52.6095C79.7298 55.0624 78.84 56.7803 77.0912 57.7166C77.0138 57.763 77.0061 57.7939 77.0061 57.8017C77.0061 57.8249 77.037 57.8404 77.0525 57.8481C77.9656 58.3975 78.6852 59.1636 79.1959 60.1463C79.7066 61.1212 79.9697 62.2974 79.9697 63.6361C79.9697 65.7021 79.3739 67.3271 78.2055 68.4645C77.037 69.602 75.474 70.1746 73.5627 70.1746L73.5704 70.1824ZM67.8676 46.2799C67.6509 46.2799 67.5426 46.3882 67.5426 46.6049V69.8187C67.5426 70.0353 67.6509 70.1437 67.8676 70.1437H73.5704C75.4662 70.1437 77.0216 69.5711 78.1822 68.4413C79.3429 67.3116 79.9388 65.6944 79.9388 63.6438C79.9388 62.3129 79.6834 61.1445 79.1727 60.1695C78.662 59.2022 77.9501 58.4284 77.0448 57.8868C76.9983 57.8636 76.9751 57.8404 76.9751 57.8017C76.9751 57.763 77.0061 57.7243 77.0835 57.6779C78.8245 56.7493 79.7066 55.047 79.7066 52.6095C79.7066 50.5512 79.1185 48.965 77.9578 47.8971C76.7972 46.8216 75.1645 46.2799 73.1062 46.2799H67.8831H67.8676ZM73.2996 67.3116H70.9473C70.8467 67.3116 70.7925 67.2574 70.7925 67.1568V59.1713C70.7925 59.0707 70.8467 59.0165 70.9473 59.0165H73.3383C74.3829 59.0165 75.2186 59.3957 75.8144 60.1308C76.4103 60.8736 76.7043 61.9183 76.7043 63.2337C76.7043 64.5491 76.3948 65.5473 75.799 66.2515C75.1954 66.9556 74.3597 67.3193 73.3074 67.3193L73.2996 67.3116ZM70.9395 59.0475C70.8622 59.0475 70.8235 59.0862 70.8235 59.1635V67.1491C70.8235 67.2265 70.8622 67.2652 70.9395 67.2652H73.2919C74.3288 67.2652 75.1567 66.9092 75.7525 66.2128C76.3484 65.5164 76.6501 64.5027 76.6501 63.2182C76.6501 61.9337 76.3561 60.8736 75.768 60.1385C75.1799 59.4034 74.3597 59.0397 73.3228 59.0397H70.9318L70.9395 59.0475ZM73.1294 56.6255H70.9473C70.8467 56.6255 70.7925 56.5713 70.7925 56.4708V49.2358C70.7925 49.1352 70.8467 49.081 70.9473 49.081H73.1294C74.1972 49.081 75.0406 49.4215 75.6365 50.0947C76.2323 50.7679 76.5263 51.7197 76.5263 52.9268C76.5263 54.1339 76.2246 55.0083 75.6365 55.6505C75.0406 56.3005 74.1972 56.6333 73.1294 56.6333V56.6255ZM70.9395 49.112C70.8622 49.112 70.8235 49.1507 70.8235 49.2281V56.463C70.8235 56.5404 70.8622 56.5791 70.9395 56.5791H73.1216C74.1817 56.5791 75.0174 56.2541 75.5978 55.6118C76.1859 54.9696 76.4799 54.0643 76.4799 52.9113C76.4799 51.7584 76.1859 50.7756 75.5978 50.1102C75.0097 49.4447 74.1817 49.112 73.1216 49.112H70.9395Z" fill="#5F0058"/>
<path d="M84.6671 68.7286C83.5296 67.5911 82.957 66.0745 82.957 64.1864V52.27C82.957 50.382 83.5296 48.8653 84.6671 47.7124C85.8046 46.5672 87.3057 45.9868 89.1706 45.9868C91.0354 45.9868 92.5753 46.5594 93.7282 47.7124C94.8812 48.8653 95.4538 50.382 95.4538 52.27V64.1864C95.4538 66.0745 94.8812 67.5911 93.7282 68.7286C92.5753 69.8661 91.0586 70.4387 89.1706 70.4387C87.2825 70.4387 85.8046 69.8738 84.6671 68.7286ZM91.3604 66.6935C91.9098 66.09 92.1806 65.3007 92.1806 64.318V52.0998C92.1806 51.1248 91.9098 50.3278 91.3604 49.7242C90.811 49.1207 90.0837 48.8189 89.1783 48.8189C88.273 48.8189 87.5766 49.1207 87.0427 49.7242C86.5087 50.3278 86.2379 51.1171 86.2379 52.0998V64.318C86.2379 65.3007 86.501 66.09 87.0427 66.6935C87.5843 67.2971 88.2885 67.5988 89.1783 67.5988C90.0682 67.5988 90.8188 67.2971 91.3604 66.6935Z" fill="#5F0058"/>
<path d="M89.1704 70.4544C87.3056 70.4544 85.789 69.8818 84.6515 68.7443C83.514 67.6068 82.9414 66.0747 82.9414 64.1867V52.2703C82.9414 50.3822 83.514 48.8501 84.6515 47.6972C85.789 46.5442 87.3056 45.9639 89.1704 45.9639C91.0353 45.9639 92.5906 46.5442 93.7436 47.6972C94.8965 48.8501 95.4768 50.3822 95.4768 52.2703V64.1867C95.4768 66.0747 94.8965 67.6068 93.7436 68.7443C92.5983 69.8818 91.0585 70.4544 89.1704 70.4544ZM89.1704 46.0103C87.3211 46.0103 85.8044 46.5906 84.6747 47.7281C83.545 48.8656 82.9724 50.3977 82.9724 52.2703V64.1867C82.9724 66.0593 83.545 67.5836 84.6747 68.7134C85.8044 69.8431 87.3133 70.4157 89.1704 70.4157C91.0275 70.4157 92.5751 69.8431 93.7126 68.7134C94.8501 67.5836 95.4304 66.0593 95.4304 64.1867V52.2703C95.4304 50.3977 94.8501 48.8656 93.7126 47.7281C92.5751 46.5906 91.043 46.0103 89.1704 46.0103ZM89.1704 67.6223C88.2806 67.6223 87.5609 67.3128 87.0193 66.7092C86.4854 66.1057 86.2145 65.3009 86.2145 64.326V52.1078C86.2145 51.1251 86.4854 50.3281 87.0193 49.7245C87.5532 49.1209 88.2806 48.8114 89.1704 48.8114C90.0603 48.8114 90.8186 49.1209 91.368 49.7245C91.9174 50.3281 92.196 51.1328 92.196 52.1078V64.326C92.196 65.3087 91.9174 66.1057 91.368 66.7092C90.8186 67.3128 90.0835 67.6223 89.1704 67.6223ZM89.1704 48.8424C88.296 48.8424 87.5764 49.1442 87.0502 49.74C86.5241 50.3358 86.2532 51.1328 86.2532 52.1V64.3182C86.2532 65.2855 86.5241 66.0825 87.0502 66.6783C87.5764 67.2741 88.2883 67.5759 89.1704 67.5759C90.0526 67.5759 90.8031 67.2741 91.3371 66.6783C91.8787 66.0825 92.1495 65.2855 92.1495 64.3182V52.1C92.1495 51.1328 91.8787 50.3358 91.3371 49.74C90.7954 49.1442 90.068 48.8424 89.1704 48.8424Z" fill="#5F0058"/>
<path d="M111.395 46.6041V48.7553C111.395 48.9797 111.279 49.0958 111.054 49.0958H106.582C106.489 49.0958 106.443 49.1422 106.443 49.235V69.8179C106.443 70.0423 106.327 70.1584 106.102 70.1584H103.51C103.286 70.1584 103.169 70.0423 103.169 69.8179V49.235C103.169 49.1422 103.123 49.0958 103.03 49.0958H98.7975C98.5731 49.0958 98.457 48.9797 98.457 48.7553V46.6041C98.457 46.3797 98.5731 46.2637 98.7975 46.2637H111.054C111.279 46.2637 111.395 46.3797 111.395 46.6041Z" fill="#5F0058"/>
<path d="M106.11 70.1824H103.517C103.278 70.1824 103.154 70.0586 103.154 69.8187V49.2358C103.154 49.1584 103.115 49.1197 103.038 49.1197H98.8051C98.5652 49.1197 98.4414 48.9959 98.4414 48.756V46.6049C98.4414 46.365 98.5652 46.2412 98.8051 46.2412H111.062C111.302 46.2412 111.426 46.365 111.426 46.6049V48.756C111.426 48.9959 111.302 49.1197 111.062 49.1197H106.589C106.512 49.1197 106.473 49.1584 106.473 49.2358V69.8187C106.473 70.0586 106.35 70.1824 106.11 70.1824ZM98.7974 46.2799C98.5807 46.2799 98.4724 46.3882 98.4724 46.6049V48.756C98.4724 48.9727 98.5807 49.081 98.7974 49.081H103.03C103.131 49.081 103.185 49.1352 103.185 49.2358V69.8187C103.185 70.0353 103.293 70.1437 103.51 70.1437H106.102C106.319 70.1437 106.427 70.0353 106.427 69.8187V49.2358C106.427 49.1352 106.481 49.081 106.582 49.081H111.054C111.271 49.081 111.379 48.9727 111.379 48.756V46.6049C111.379 46.3882 111.271 46.2799 111.054 46.2799H98.7974Z" fill="#5F0058"/>
<path d="M115.187 68.7286C114.049 67.5911 113.477 66.0745 113.477 64.1864V52.27C113.477 50.382 114.041 48.8653 115.187 47.7124C116.324 46.5672 117.825 45.9868 119.69 45.9868C121.555 45.9868 123.103 46.5594 124.248 47.7124C125.393 48.8653 125.973 50.382 125.973 52.27V64.1864C125.973 66.0745 125.401 67.5911 124.248 68.7286C123.095 69.8661 121.578 70.4387 119.69 70.4387C117.802 70.4387 116.324 69.8738 115.187 68.7286ZM121.88 66.6935C122.429 66.09 122.7 65.3007 122.7 64.318V52.0998C122.7 51.1248 122.429 50.3278 121.88 49.7242C121.331 49.1207 120.603 48.8189 119.698 48.8189C118.793 48.8189 118.096 49.1207 117.562 49.7242C117.028 50.3278 116.757 51.1171 116.757 52.0998V64.318C116.757 65.3007 117.028 66.09 117.562 66.6935C118.096 67.2971 118.808 67.5988 119.698 67.5988C120.588 67.5988 121.338 67.2971 121.88 66.6935Z" fill="#5F0058"/>
<path d="M119.69 70.4544C117.825 70.4544 116.308 69.8818 115.171 68.7443C114.034 67.6068 113.461 66.0747 113.461 64.1867V52.2703C113.461 50.3822 114.034 48.8501 115.171 47.6972C116.308 46.5519 117.825 45.9639 119.69 45.9639C121.555 45.9639 123.11 46.5442 124.263 47.6972C125.408 48.8424 125.989 50.3822 125.989 52.2703V64.1867C125.989 66.0747 125.408 67.6068 124.263 68.7443C123.118 69.8818 121.578 70.4544 119.69 70.4544ZM119.69 46.0103C117.841 46.0103 116.324 46.5906 115.194 47.7281C114.064 48.8656 113.492 50.3977 113.492 52.2703V64.1867C113.492 66.0593 114.064 67.5836 115.194 68.7134C116.324 69.8431 117.833 70.4157 119.69 70.4157C121.547 70.4157 123.095 69.8431 124.232 68.7134C125.37 67.5836 125.95 66.0593 125.95 64.1867V52.2703C125.95 50.3977 125.37 48.8656 124.232 47.7281C123.095 46.5906 121.563 46.0103 119.69 46.0103ZM119.69 67.6223C118.8 67.6223 118.08 67.3128 117.539 66.7092C117.005 66.1057 116.734 65.3009 116.734 64.326V52.1078C116.734 51.1328 117.005 50.3281 117.539 49.7245C118.073 49.1209 118.8 48.8114 119.69 48.8114C120.58 48.8114 121.338 49.1209 121.888 49.7245C122.437 50.3281 122.708 51.1328 122.708 52.1078V64.326C122.708 65.3087 122.429 66.1057 121.888 66.7092C121.338 67.3128 120.603 67.6223 119.69 67.6223ZM119.69 48.8424C118.816 48.8424 118.096 49.1442 117.57 49.74C117.044 50.3358 116.773 51.1328 116.773 52.1V64.3182C116.773 65.2855 117.044 66.0825 117.57 66.6783C118.096 67.2741 118.808 67.5759 119.69 67.5759C120.572 67.5759 121.323 67.2741 121.864 66.6783C122.406 66.0825 122.677 65.2855 122.677 64.3182V52.1C122.677 51.1328 122.406 50.3358 121.864 49.74C121.323 49.1442 120.595 48.8424 119.69 48.8424Z" fill="#5F0058"/>
<path d="M130.909 68.744C129.803 67.6142 129.253 66.144 129.253 64.3256V63.4358C129.253 63.2114 129.369 63.0953 129.594 63.0953H132.116C132.341 63.0953 132.457 63.2114 132.457 63.4358V64.1554C132.457 65.2 132.72 66.0357 133.238 66.6625C133.764 67.2893 134.43 67.5988 135.25 67.5988C136.07 67.5988 136.743 67.297 137.277 66.6934C137.811 66.0899 138.082 65.3006 138.082 64.3179C138.082 63.6602 137.943 63.0798 137.657 62.5769C137.37 62.0739 136.999 61.6251 136.527 61.2305C136.063 60.8358 135.304 60.2477 134.26 59.474C133.099 58.6073 132.186 57.8722 131.528 57.2532C130.87 56.6419 130.313 55.899 129.857 55.0324C129.4 54.1657 129.176 53.1521 129.176 51.9914C129.176 50.1497 129.725 48.6873 130.816 47.604C131.907 46.5207 133.331 45.979 135.088 45.979C136.844 45.979 138.368 46.5593 139.475 47.72C140.581 48.8807 141.131 50.4051 141.131 52.2932V53.1443C141.131 53.3687 141.015 53.4848 140.79 53.4848H138.26C138.036 53.4848 137.92 53.3687 137.92 53.1443V52.2235C137.92 51.2021 137.657 50.3741 137.138 49.7474C136.612 49.1206 135.931 48.8111 135.088 48.8111C134.291 48.8111 133.641 49.0897 133.138 49.6468C132.635 50.2039 132.387 50.9854 132.387 51.9836C132.387 52.8967 132.635 53.6628 133.138 54.2895C133.641 54.9163 134.608 55.752 136.039 56.7966C137.401 57.818 138.43 58.6537 139.127 59.2882C139.823 59.9228 140.357 60.6269 140.729 61.3852C141.108 62.1513 141.293 63.0566 141.293 64.1012C141.293 66.0125 140.736 67.5446 139.622 68.6898C138.508 69.8428 137.053 70.4154 135.25 70.4154C133.447 70.4154 132 69.8505 130.894 68.7285L130.909 68.744ZM133.107 76.6289C133.06 76.5516 133.076 76.451 133.138 76.3349L135.258 72.6439C135.374 72.4814 135.505 72.404 135.668 72.404H137.749C137.889 72.404 137.974 72.4427 138.02 72.5201C138.067 72.5975 138.051 72.6981 137.989 72.8141L135.467 76.5361C135.374 76.6754 135.242 76.7373 135.057 76.7373H133.385C133.246 76.7373 133.161 76.6986 133.114 76.6212L133.107 76.6289Z" fill="#5F0058"/>
<path d="M135.057 76.7686H133.385C133.238 76.7686 133.145 76.7222 133.091 76.6371C133.045 76.552 133.052 76.4436 133.122 76.3276L135.242 72.6366C135.358 72.4741 135.505 72.389 135.668 72.389H137.749C137.889 72.389 137.989 72.4354 138.036 72.5205C138.082 72.6056 138.074 72.714 138.005 72.83L135.474 76.552C135.382 76.6912 135.235 76.7686 135.049 76.7686H135.057ZM133.13 76.6216C133.168 76.6912 133.261 76.7299 133.385 76.7299H135.057C135.235 76.7299 135.366 76.6603 135.451 76.5365L137.981 72.8145C138.043 72.7062 138.059 72.6211 138.012 72.5437C137.966 72.4663 137.889 72.4354 137.757 72.4354H135.676C135.521 72.4354 135.389 72.5128 135.281 72.6675L133.161 76.3508C133.099 76.4591 133.083 76.5442 133.13 76.6216ZM135.258 70.4545C133.463 70.4545 131.992 69.8819 130.894 68.7599C129.795 67.6379 129.23 66.1445 129.23 64.326V63.4362C129.23 63.1963 129.354 63.0725 129.594 63.0725H132.116C132.356 63.0725 132.48 63.1963 132.48 63.4362V64.1558C132.48 65.1927 132.743 66.0361 133.261 66.6552C133.78 67.2742 134.453 67.5837 135.258 67.5837C136.062 67.5837 136.743 67.2819 137.277 66.6861C137.804 66.0903 138.074 65.2933 138.074 64.326C138.074 63.6761 137.935 63.088 137.649 62.5927C137.37 62.0975 136.991 61.641 136.527 61.2463C136.062 60.8517 135.304 60.2636 134.26 59.4898C133.107 58.6309 132.186 57.8804 131.528 57.2691C130.87 56.6578 130.305 55.9072 129.849 55.0483C129.392 54.1894 129.168 53.1602 129.168 51.9995C129.168 50.1579 129.717 48.68 130.808 47.5966C131.899 46.5133 133.339 45.9717 135.087 45.9717C136.836 45.9717 138.384 46.5598 139.49 47.7204C140.589 48.8811 141.154 50.421 141.154 52.309V53.1602C141.154 53.4001 141.03 53.5239 140.79 53.5239H138.26C138.02 53.5239 137.896 53.4001 137.896 53.1602V52.2394C137.896 51.2257 137.633 50.3978 137.115 49.7787C136.596 49.1597 135.915 48.8502 135.08 48.8502C134.29 48.8502 133.641 49.1288 133.145 49.6781C132.65 50.2275 132.402 51.0091 132.402 52.0073C132.402 52.9126 132.65 53.6787 133.145 54.2977C133.641 54.9167 134.615 55.7602 136.047 56.8048C137.401 57.8184 138.446 58.6619 139.134 59.2964C139.831 59.9309 140.365 60.6428 140.744 61.4011C141.115 62.1594 141.309 63.0802 141.309 64.1249C141.309 66.0361 140.744 67.5837 139.63 68.7289C138.515 69.8741 137.037 70.4622 135.25 70.4622L135.258 70.4545ZM129.594 63.1112C129.377 63.1112 129.269 63.2195 129.269 63.4362V64.326C129.269 66.1367 129.826 67.6147 130.917 68.7367C132.016 69.8509 133.47 70.4235 135.258 70.4235C137.045 70.4235 138.508 69.8432 139.614 68.7057C140.721 67.5682 141.286 66.0284 141.286 64.1249C141.286 63.088 141.1 62.1749 140.721 61.4166C140.349 60.6583 139.808 59.9541 139.119 59.3196C138.423 58.6851 137.386 57.8417 136.032 56.828C134.6 55.7834 133.625 54.9399 133.122 54.3132C132.619 53.6864 132.364 52.9049 132.364 51.9995C132.364 51.0013 132.619 50.2043 133.122 49.6472C133.625 49.0901 134.283 48.8038 135.08 48.8038C135.923 48.8038 136.62 49.121 137.146 49.7478C137.672 50.3746 137.935 51.2103 137.935 52.2317V53.1525C137.935 53.3691 138.043 53.4775 138.26 53.4775H140.79C141.007 53.4775 141.115 53.3691 141.115 53.1525V52.3013C141.115 50.4287 140.558 48.8889 139.467 47.7359C138.376 46.583 136.898 46.0026 135.095 46.0026C133.292 46.0026 131.923 46.5443 130.839 47.6199C129.756 48.6954 129.207 50.1656 129.207 51.9918C129.207 53.1447 129.439 54.1661 129.888 55.0173C130.336 55.8762 130.901 56.6191 131.559 57.2304C132.217 57.8417 133.13 58.5845 134.29 59.4511C135.335 60.2249 136.101 60.813 136.565 61.2077C137.03 61.6023 137.409 62.0588 137.695 62.5618C137.981 63.0648 138.121 63.6528 138.121 64.3106C138.121 65.2933 137.85 66.0903 137.316 66.6938C136.782 67.2974 136.093 67.6069 135.273 67.6069C134.453 67.6069 133.764 67.2897 133.246 66.6629C132.72 66.0361 132.457 65.185 132.457 64.1403V63.4207C132.457 63.204 132.348 63.0957 132.132 63.0957H129.609L129.594 63.1112Z" fill="#5F0058"/>
<path d="M153.934 69.8484L153.183 65.9253C153.183 65.8788 153.168 65.8479 153.129 65.8247C153.09 65.8014 153.051 65.7937 153.013 65.7937H147.449C147.403 65.7937 147.364 65.8092 147.333 65.8247C147.302 65.8401 147.279 65.8788 147.279 65.9253L146.559 69.8484C146.536 70.0496 146.412 70.1579 146.18 70.1579H143.588C143.472 70.1579 143.387 70.1269 143.333 70.0573C143.278 69.9877 143.255 69.8948 143.278 69.7865L148.362 46.5727C148.409 46.3715 148.533 46.2632 148.741 46.2632H151.782C152.007 46.2632 152.138 46.3638 152.162 46.5727L157.284 69.7865V69.8561C157.284 70.0573 157.184 70.1656 156.975 70.1656H154.313C154.112 70.1656 153.98 70.065 153.934 69.8561V69.8484ZM147.96 63.1938H152.502C152.572 63.1938 152.603 63.1473 152.603 63.0545L150.281 50.9369C150.258 50.8905 150.235 50.8672 150.212 50.8672C150.188 50.8672 150.165 50.8905 150.142 50.9369L147.852 63.0545C147.852 63.1473 147.883 63.1938 147.952 63.1938H147.96Z" fill="#5F0058"/>
<path d="M156.968 70.1815H154.306C154.09 70.1815 153.958 70.0731 153.912 69.8565L153.161 65.9333C153.161 65.8869 153.146 65.8637 153.122 65.8405C153.091 65.8173 153.053 65.8095 153.014 65.8095H147.45C147.412 65.8095 147.373 65.8173 147.342 65.8405C147.311 65.8559 147.303 65.8869 147.303 65.9256L146.584 69.8565C146.561 70.0731 146.429 70.1815 146.189 70.1815H143.597C143.481 70.1815 143.388 70.1428 143.326 70.0731C143.264 70.0035 143.249 69.9029 143.272 69.7868L148.356 46.573C148.402 46.3564 148.534 46.248 148.75 46.248H151.791C152.031 46.248 152.163 46.3564 152.186 46.573L157.309 69.7868V69.8565C157.309 70.0731 157.2 70.1815 156.984 70.1815H156.968ZM153.95 69.8487C153.997 70.0422 154.113 70.1428 154.306 70.1428H156.968C157.162 70.1428 157.254 70.0499 157.254 69.8565V69.7868L152.132 46.573C152.109 46.3796 151.993 46.279 151.776 46.279H148.735C148.541 46.279 148.425 46.3719 148.379 46.573L143.295 69.7868C143.272 69.8952 143.295 69.9803 143.342 70.0422C143.396 70.1041 143.473 70.135 143.581 70.135H146.174C146.39 70.135 146.506 70.0422 146.53 69.841L147.249 65.9101C147.249 65.8637 147.272 65.825 147.311 65.794C147.35 65.7708 147.389 65.7554 147.443 65.7554H153.006C153.053 65.7554 153.099 65.7708 153.138 65.794C153.177 65.8173 153.2 65.8637 153.2 65.9101L153.95 69.8332V69.8487ZM152.496 63.2173H147.953C147.899 63.2173 147.83 63.1941 147.83 63.0626L150.12 50.9372C150.166 50.8289 150.236 50.8289 150.29 50.9372L152.612 63.0626C152.612 63.1941 152.55 63.2251 152.488 63.2251L152.496 63.2173ZM150.159 50.945L147.868 63.0626C147.868 63.1632 147.915 63.1786 147.953 63.1786H152.496C152.496 63.1786 152.581 63.1632 152.581 63.0626L150.259 50.9527C150.236 50.9063 150.213 50.8985 150.213 50.8985C150.213 50.8985 150.19 50.8985 150.166 50.9527L150.159 50.945Z" fill="#5F0058"/>
<path d="M170.146 46.2637H172.707C172.932 46.2637 173.048 46.3797 173.048 46.6041V69.8179C173.048 70.0423 172.932 70.1584 172.707 70.1584H169.775C169.589 70.1584 169.465 70.0655 169.396 69.8876L163.592 54.2879C163.569 54.2415 163.538 54.226 163.492 54.2337C163.445 54.2492 163.422 54.2724 163.422 54.3189L163.453 69.8179C163.453 70.0423 163.337 70.1584 163.112 70.1584H160.52C160.296 70.1584 160.18 70.0423 160.18 69.8179V46.6041C160.18 46.3797 160.296 46.2637 160.52 46.2637H163.422C163.608 46.2637 163.731 46.3565 163.801 46.5345L169.635 62.1342C169.659 62.2038 169.69 62.2348 169.736 62.2193C169.782 62.2115 169.806 62.1651 169.806 62.1032V46.6041C169.806 46.3797 169.922 46.2637 170.146 46.2637Z" fill="#5F0058"/>
<path d="M172.707 70.1824H169.774C169.581 70.1824 169.449 70.0895 169.38 69.8961L163.576 54.2964C163.576 54.2964 163.53 54.25 163.499 54.2577C163.46 54.2654 163.445 54.2887 163.445 54.3273L163.476 69.8264C163.476 70.0663 163.352 70.1901 163.112 70.1901H160.52C160.28 70.1901 160.156 70.0663 160.156 69.8264V46.6126C160.156 46.3728 160.28 46.249 160.52 46.249H163.422C163.615 46.249 163.747 46.3418 163.816 46.5353L169.651 62.1349C169.682 62.22 169.72 62.2123 169.728 62.2046C169.744 62.2046 169.782 62.1891 169.782 62.104V46.6049C169.782 46.365 169.906 46.2412 170.146 46.2412H172.707C172.947 46.2412 173.071 46.365 173.071 46.6049V69.8187C173.071 70.0586 172.947 70.1824 172.707 70.1824ZM163.515 54.2113C163.515 54.2113 163.584 54.2268 163.607 54.2732L169.411 69.8806C169.48 70.0585 169.597 70.1437 169.767 70.1437H172.699C172.916 70.1437 173.024 70.0353 173.024 69.8187V46.6049C173.024 46.3882 172.916 46.2799 172.699 46.2799H170.138C169.922 46.2799 169.813 46.3882 169.813 46.6049V62.104C169.813 62.2046 169.767 62.2355 169.728 62.2432C169.689 62.251 169.635 62.2432 169.604 62.1426L163.77 46.543C163.7 46.365 163.584 46.2799 163.414 46.2799H160.512C160.296 46.2799 160.187 46.3882 160.187 46.6049V69.8187C160.187 70.0353 160.296 70.1437 160.512 70.1437H163.104C163.321 70.1437 163.429 70.0353 163.429 69.8187L163.398 54.3196C163.398 54.2654 163.429 54.2268 163.484 54.219C163.491 54.219 163.507 54.219 163.515 54.219V54.2113Z" fill="#5F0058"/>
<path d="M177.629 69.8179V46.6041C177.629 46.3797 177.745 46.2637 177.969 46.2637H180.562C180.786 46.2637 180.902 46.3797 180.902 46.6041V69.8179C180.902 70.0423 180.786 70.1584 180.562 70.1584H177.969C177.745 70.1584 177.629 70.0423 177.629 69.8179Z" fill="#5F0058"/>
<path d="M180.561 70.1824H177.969C177.729 70.1824 177.605 70.0586 177.605 69.8187V46.6049C177.605 46.365 177.729 46.2412 177.969 46.2412H180.561C180.801 46.2412 180.925 46.365 180.925 46.6049V69.8187C180.925 70.0586 180.801 70.1824 180.561 70.1824ZM177.969 46.2799C177.752 46.2799 177.644 46.3882 177.644 46.6049V69.8187C177.644 70.0353 177.752 70.1437 177.969 70.1437H180.561C180.778 70.1437 180.886 70.0353 180.886 69.8187V46.6049C180.886 46.3882 180.778 46.2799 180.561 46.2799H177.969Z" fill="#5F0058"/>
</svg>
